<svg version="1.2" xmlns="http://www.w3.org/2000/svg" viewBox="0 0 280.00000000000006 30.999999999999996" width="281" height="31"><style>.a{fill:none;stroke:#000;stroke-linejoin:round;stroke-width:12}.b{fill:none;stroke:#fff;stroke-linejoin:round;stroke-width:6}</style><path fill-rule="evenodd" class="a" d="m17.3 23v-12.8h4l1.7 1.7 2-2-2.3-2.3h-13.5l-2.3 2.3 2 2 1.7-1.7h3.9v12.8zm11.9 0v-5.4h4.4l6.2 6.2 2-1.9-4.6-4.5h1.2l3-3.1v-3.6l-3-3.1h-12v15.4zm0-12.9h7.8l1.5 1.6v1.8l-1.6 1.6h-7.7zm29.9 12.9v-9.5l-6-6.2h-3l-6.1 6.2v9.5h2.8v-4.4h9.6v4.4zm-2.8-8.6v1.8h-9.6v-1.8l4.8-4.8zm6-6.7v15.4h2.8v-15.4zm20.8 0v11.7l-10.9-11.7h-2.9v15.4h2.7v-11.3l11.6 12.4 2.2-1.9v-14.6zm5.9 0.3l0.3 15.1h12.8v-2.7h-10.1v-3.8h9.2v-2.7h-9.2v-3.6h10v-2.6zm19.2 15.1v-5.4h4.4l6.1 6.2 2.1-1.9-4.7-4.5h1.3l3-3.1v-3.6l-3-3.1h-12v15.4zm0-12.9h7.7l1.6 1.6v1.8l-1.6 1.6h-7.7zm14.5 12.9h10.4l2.8-3.6-10-8.6 0.5-0.5h8.2v-2.7h-10.1l-2.7 3.6 9.9 8.6-0.5 0.5h-8.5zm40.1-15.3v10.3l-1.9 2-4-4.1v-7.2h-2.8v7.3l-3.9 4-2-2v-10.3h-2.9v11.5l4.8 4.9 5.4-5.6 5.4 5.6 4.8-4.9v-11.5zm6.5 0v15.3h12.8v-2.6h-10.1v-3.8h9.2v-2.7h-9.2v-3.6h10v-2.6zm16 0v15.3h13.1l2-1.9v-3.9l-1.8-1.9 1.8-1.8v-3.9l-2-1.9zm2.8 8.9h9.1v4h-9.1zm0-6.4h9.1v3.9h-9.1zm26 12.9v-4.8h8.5l3.1-3.1v-4.4l-3.1-3h-11.3v15.3zm0-12.8h7.2l1.5 1.5v2.5l-1.5 1.5h-7.2zm26.3 10.1h-9.3v-12.7h-2.8v15.3h12.1zm13.4-12.7v10.8l-2 2.1h-5.6l-2.1-2.2v-10.7h-2.8v11.9l3.6 3.6h8.1l3.6-3.7v-11.8zm5.8 15.4h10.4l2.8-3.6-9.9-8.6 0.4-0.5h8.3v-2.7h-10.1l-2.8 3.6 10 8.6-0.5 0.6h-8.6z"/><path fill-rule="evenodd" class="b" d="m17.3 23v-12.8h4l1.7 1.7 2-2-2.3-2.3h-13.5l-2.3 2.3 2 2 1.7-1.7h3.9v12.8zm11.9 0v-5.4h4.4l6.2 6.2 2-1.9-4.6-4.5h1.2l3-3.1v-3.6l-3-3.1h-12v15.4zm0-12.9h7.8l1.5 1.6v1.8l-1.6 1.6h-7.7zm29.9 12.9v-9.5l-6-6.2h-3l-6.1 6.2v9.5h2.8v-4.4h9.6v4.4zm-2.8-8.6v1.8h-9.6v-1.8l4.8-4.8zm6-6.7v15.4h2.8v-15.4zm20.8 0v11.7l-10.9-11.7h-2.9v15.4h2.7v-11.3l11.6 12.4 2.2-1.9v-14.6zm5.9 0.3l0.3 15.1h12.8v-2.7h-10.1v-3.8h9.2v-2.7h-9.2v-3.6h10v-2.6zm19.2 15.1v-5.4h4.4l6.1 6.2 2.1-1.9-4.7-4.5h1.3l3-3.1v-3.6l-3-3.1h-12v15.4zm0-12.9h7.7l1.6 1.6v1.8l-1.6 1.6h-7.7zm14.5 12.9h10.4l2.8-3.6-10-8.6 0.5-0.5h8.2v-2.7h-10.1l-2.7 3.6 9.9 8.6-0.5 0.5h-8.5zm40.1-15.3v10.3l-1.9 2-4-4.1v-7.2h-2.8v7.3l-3.9 4-2-2v-10.3h-2.9v11.5l4.8 4.9 5.4-5.6 5.4 5.6 4.8-4.9v-11.5zm6.5 0v15.3h12.8v-2.6h-10.1v-3.8h9.2v-2.7h-9.2v-3.6h10v-2.6zm16 0v15.3h13.1l2-1.9v-3.9l-1.8-1.9 1.8-1.8v-3.9l-2-1.9zm2.8 8.9h9.1v4h-9.1zm0-6.4h9.1v3.9h-9.1zm26 12.9v-4.8h8.5l3.1-3.1v-4.4l-3.1-3h-11.3v15.3zm0-12.8h7.2l1.5 1.5v2.5l-1.5 1.5h-7.2zm26.3 10.1h-9.3v-12.7h-2.8v15.3h12.1zm13.4-12.7v10.8l-2 2.1h-5.6l-2.1-2.2v-10.7h-2.8v11.9l3.6 3.6h8.1l3.6-3.7v-11.8zm5.8 15.4h10.4l2.8-3.6-9.9-8.6 0.4-0.5h8.3v-2.7h-10.1l-2.8 3.6 10 8.6-0.5 0.6h-8.6z"/><path fill-rule="evenodd" d="m17.3 23v-12.8h4l1.7 1.7 2-2-2.3-2.3h-13.5l-2.3 2.3 2 2 1.7-1.7h3.9v12.8zm11.9 0v-5.4h4.4l6.2 6.2 2-1.9-4.6-4.5h1.2l3-3.1v-3.6l-3-3.1h-12v15.4zm0-12.9h7.8l1.5 1.6v1.8l-1.6 1.6h-7.7zm29.9 12.9v-9.5l-6-6.2h-3l-6.1 6.2v9.5h2.8v-4.4h9.6v4.4zm-2.8-8.6v1.8h-9.6v-1.8l4.8-4.8zm6-6.7v15.4h2.8v-15.4zm20.8 0v11.7l-10.9-11.7h-2.9v15.4h2.7v-11.3l11.6 12.4 2.2-1.9v-14.6zm5.9 0.3l0.3 15.1h12.8v-2.7h-10.1v-3.8h9.2v-2.7h-9.2v-3.6h10v-2.6zm19.2 15.1v-5.4h4.4l6.1 6.2 2.1-1.9-4.7-4.5h1.3l3-3.1v-3.6l-3-3.1h-12v15.4zm0-12.9h7.7l1.6 1.6v1.8l-1.6 1.6h-7.7zm14.5 12.9h10.4l2.8-3.6-10-8.6 0.5-0.5h8.2v-2.7h-10.1l-2.7 3.6 9.9 8.6-0.5 0.5h-8.5zm40.1-15.3v10.3l-1.9 2-4-4.1v-7.2h-2.8v7.3l-3.9 4-2-2v-10.3h-2.9v11.5l4.8 4.9 5.4-5.6 5.4 5.6 4.8-4.9v-11.5zm6.5 0v15.3h12.8v-2.6h-10.1v-3.8h9.2v-2.7h-9.2v-3.6h10v-2.6zm16 0v15.3h13.1l2-1.9v-3.9l-1.8-1.9 1.8-1.8v-3.9l-2-1.9zm2.8 8.9h9.1v4h-9.1zm0-6.4h9.1v3.9h-9.1zm26 12.9v-4.8h8.5l3.1-3.1v-4.4l-3.1-3h-11.3v15.3zm0-12.8h7.2l1.5 1.5v2.5l-1.5 1.5h-7.2zm26.3 10.1h-9.3v-12.7h-2.8v15.3h12.1zm13.4-12.7v10.8l-2 2.1h-5.6l-2.1-2.2v-10.7h-2.8v11.9l3.6 3.6h8.1l3.6-3.7v-11.8zm5.8 15.4h10.4l2.8-3.6-9.9-8.6 0.4-0.5h8.3v-2.7h-10.1l-2.8 3.6 10 8.6-0.5 0.6h-8.6z"/></svg>